<svg xmlns="http://www.w3.org/2000/svg" viewBox="0 0 440 260" width="440" height="260" role="img" font-family="system-ui, -apple-system, Segoe UI, Helvetica, Arial, sans-serif">
<line x1="30" y1="232" x2="428" y2="232" stroke="#8b949e" stroke-width="1" opacity="0.2"/>
<text x="24" y="235" font-size="9" fill="#8b949e" text-anchor="end" font-weight="normal" opacity="1">0</text>
<line x1="30" y1="161.33" x2="428" y2="161.33" stroke="#8b949e" stroke-width="1" opacity="0.2"/>
<text x="24" y="164.33" font-size="9" fill="#8b949e" text-anchor="end" font-weight="normal" opacity="1">20</text>
<line x1="30" y1="90.67" x2="428" y2="90.67" stroke="#8b949e" stroke-width="1" opacity="0.2"/>
<text x="24" y="93.67" font-size="9" fill="#8b949e" text-anchor="end" font-weight="normal" opacity="1">40</text>
<line x1="30" y1="20" x2="428" y2="20" stroke="#8b949e" stroke-width="1" opacity="0.2"/>
<text x="24" y="23" font-size="9" fill="#8b949e" text-anchor="end" font-weight="normal" opacity="1">60</text>
<path d="M30 186.07 L117.75 186.07 L117.75 182.53 L142.82 182.53 L142.82 179 L145.95 179 L145.95 175.47 L167.89 175.47 L167.89 171.93 L167.89 171.93 L167.89 168.4 L268.17 168.4 L268.17 164.87 L268.17 164.87 L268.17 161.33 L271.31 161.33 L271.31 157.8 L274.44 157.8 L274.44 154.27 L274.44 154.27 L274.44 150.73 L277.57 150.73 L277.57 147.2 L280.71 147.2 L280.71 143.67 L280.71 143.67 L280.71 140.13 L283.84 140.13 L283.84 136.6 L286.98 136.6 L286.98 133.07 L290.11 133.07 L290.11 129.53 L293.24 129.53 L293.24 126 L296.38 126 L296.38 122.47 L299.51 122.47 L299.51 118.93 L330.85 118.93 L330.85 115.4 L337.12 115.4 L337.12 111.87 L340.25 111.87 L340.25 108.33 L362.19 108.33 L362.19 104.8 L365.32 104.8 L365.32 101.27 L380.99 101.27 L380.99 97.73 L412.33 97.73 L412.33 94.2 L412.33 94.2 L412.33 90.67 L412.33 90.67 L412.33 87.13 L428 87.13 L428 83.6 L428 83.6 L428 80.07 L428 80.07 L428 232 L30 232 Z" fill="#4c8eda" stroke="none" stroke-width="1" stroke-linejoin="round" stroke-linecap="round" opacity="0.16"/>
<path d="M30 186.07 L117.75 186.07 L117.75 182.53 L142.82 182.53 L142.82 179 L145.95 179 L145.95 175.47 L167.89 175.47 L167.89 171.93 L167.89 171.93 L167.89 168.4 L268.17 168.4 L268.17 164.87 L268.17 164.87 L268.17 161.33 L271.31 161.33 L271.31 157.8 L274.44 157.8 L274.44 154.27 L274.44 154.27 L274.44 150.73 L277.57 150.73 L277.57 147.2 L280.71 147.2 L280.71 143.67 L280.71 143.67 L280.71 140.13 L283.84 140.13 L283.84 136.6 L286.98 136.6 L286.98 133.07 L290.11 133.07 L290.11 129.53 L293.24 129.53 L293.24 126 L296.38 126 L296.38 122.47 L299.51 122.47 L299.51 118.93 L330.85 118.93 L330.85 115.4 L337.12 115.4 L337.12 111.87 L340.25 111.87 L340.25 108.33 L362.19 108.33 L362.19 104.8 L365.32 104.8 L365.32 101.27 L380.99 101.27 L380.99 97.73 L412.33 97.73 L412.33 94.2 L412.33 94.2 L412.33 90.67 L412.33 90.67 L412.33 87.13 L428 87.13 L428 83.6 L428 83.6 L428 80.07 L428 80.07" fill="none" stroke="#4c8eda" stroke-width="1.8" stroke-linejoin="round" stroke-linecap="round" opacity="1"/>
<circle cx="428" cy="80.07" r="3.2" fill="#4c8eda" opacity="1"/>
<text x="426" y="71.07" font-size="10" fill="#4c8eda" text-anchor="end" font-weight="600" opacity="1">43 solved</text>
<text x="34" y="180.07" font-size="9" fill="#8b949e" text-anchor="start" font-weight="normal" opacity="1">13 before</text>
<line x1="30" y1="232" x2="428" y2="232" stroke="#8b949e" stroke-width="1" opacity="0.55"/>
<text x="30" y="250" font-size="9" fill="#8b949e" text-anchor="start" font-weight="normal" opacity="1">Jun 2026</text>
<text x="124.02" y="250" font-size="9" fill="#8b949e" text-anchor="middle" font-weight="normal" opacity="1">Jul</text>
<text x="221.17" y="250" font-size="9" fill="#8b949e" text-anchor="middle" font-weight="normal" opacity="1">Aug</text>
<text x="318.31" y="250" font-size="9" fill="#8b949e" text-anchor="middle" font-weight="normal" opacity="1">Sep</text>
<text x="412.33" y="250" font-size="9" fill="#8b949e" text-anchor="middle" font-weight="normal" opacity="1">Oct</text>
</svg>
