<svg xmlns="http://www.w3.org/2000/svg" viewBox="0 0 440 260" width="440" height="260" role="img" font-family="system-ui, -apple-system, Segoe UI, Helvetica, Arial, sans-serif">
<line x1="30" y1="232" x2="428" y2="232" stroke="#8b949e" stroke-width="1" opacity="0.2"/>
<text x="24" y="235" font-size="9" fill="#8b949e" text-anchor="end" font-weight="normal" opacity="1">0</text>
<line x1="30" y1="179" x2="428" y2="179" stroke="#8b949e" stroke-width="1" opacity="0.2"/>
<text x="24" y="182" font-size="9" fill="#8b949e" text-anchor="end" font-weight="normal" opacity="1">10</text>
<line x1="30" y1="126" x2="428" y2="126" stroke="#8b949e" stroke-width="1" opacity="0.2"/>
<text x="24" y="129" font-size="9" fill="#8b949e" text-anchor="end" font-weight="normal" opacity="1">20</text>
<line x1="30" y1="73" x2="428" y2="73" stroke="#8b949e" stroke-width="1" opacity="0.2"/>
<text x="24" y="76" font-size="9" fill="#8b949e" text-anchor="end" font-weight="normal" opacity="1">30</text>
<line x1="30" y1="20" x2="428" y2="20" stroke="#8b949e" stroke-width="1" opacity="0.2"/>
<text x="24" y="23" font-size="9" fill="#8b949e" text-anchor="end" font-weight="normal" opacity="1">40</text>
<path d="M30 163.1 L121.34 163.1 L121.34 157.8 L147.44 157.8 L147.44 152.5 L150.7 152.5 L150.7 147.2 L173.54 147.2 L173.54 141.9 L173.54 141.9 L173.54 136.6 L277.93 136.6 L277.93 131.3 L277.93 131.3 L277.93 126 L281.2 126 L281.2 120.7 L284.46 120.7 L284.46 115.4 L284.46 115.4 L284.46 110.1 L287.72 110.1 L287.72 104.8 L290.98 104.8 L290.98 99.5 L290.98 99.5 L290.98 94.2 L294.25 94.2 L294.25 88.9 L297.51 88.9 L297.51 83.6 L300.77 83.6 L300.77 78.3 L304.03 78.3 L304.03 73 L307.3 73 L307.3 67.7 L310.56 67.7 L310.56 62.4 L343.18 62.4 L343.18 57.1 L349.7 57.1 L349.7 51.8 L352.97 51.8 L352.97 46.5 L375.8 46.5 L375.8 41.2 L379.07 41.2 L379.07 35.9 L395.38 35.9 L395.38 30.6 L428 30.6 L428 25.3 L428 25.3 L428 232 L30 232 Z" fill="#4c8eda" stroke="none" stroke-width="1" stroke-linejoin="round" stroke-linecap="round" opacity="0.16"/>
<path d="M30 163.1 L121.34 163.1 L121.34 157.8 L147.44 157.8 L147.44 152.5 L150.7 152.5 L150.7 147.2 L173.54 147.2 L173.54 141.9 L173.54 141.9 L173.54 136.6 L277.93 136.6 L277.93 131.3 L277.93 131.3 L277.93 126 L281.2 126 L281.2 120.7 L284.46 120.7 L284.46 115.4 L284.46 115.4 L284.46 110.1 L287.72 110.1 L287.72 104.8 L290.98 104.8 L290.98 99.5 L290.98 99.5 L290.98 94.2 L294.25 94.2 L294.25 88.9 L297.51 88.9 L297.51 83.6 L300.77 83.6 L300.77 78.3 L304.03 78.3 L304.03 73 L307.3 73 L307.3 67.7 L310.56 67.7 L310.56 62.4 L343.18 62.4 L343.18 57.1 L349.7 57.1 L349.7 51.8 L352.97 51.8 L352.97 46.5 L375.8 46.5 L375.8 41.2 L379.07 41.2 L379.07 35.9 L395.38 35.9 L395.38 30.6 L428 30.6 L428 25.3 L428 25.3" fill="none" stroke="#4c8eda" stroke-width="1.8" stroke-linejoin="round" stroke-linecap="round" opacity="1"/>
<circle cx="428" cy="25.3" r="3.2" fill="#4c8eda" opacity="1"/>
<text x="426" y="16.3" font-size="10" fill="#4c8eda" text-anchor="end" font-weight="600" opacity="1">39 solved</text>
<text x="34" y="157.1" font-size="9" fill="#8b949e" text-anchor="start" font-weight="normal" opacity="1">13 before</text>
<line x1="30" y1="232" x2="428" y2="232" stroke="#8b949e" stroke-width="1" opacity="0.55"/>
<text x="30" y="250" font-size="9" fill="#8b949e" text-anchor="start" font-weight="normal" opacity="1">Jun 2026</text>
<text x="127.87" y="250" font-size="9" fill="#8b949e" text-anchor="middle" font-weight="normal" opacity="1">Jul</text>
<text x="229" y="250" font-size="9" fill="#8b949e" text-anchor="middle" font-weight="normal" opacity="1">Aug</text>
<text x="330.13" y="250" font-size="9" fill="#8b949e" text-anchor="middle" font-weight="normal" opacity="1">Sep</text>
<text x="428" y="250" font-size="9" fill="#8b949e" text-anchor="end" font-weight="normal" opacity="1">Oct</text>
</svg>
