<svg xmlns="http://www.w3.org/2000/svg" viewBox="0 0 440 260" width="440" height="260" role="img" font-family="system-ui, -apple-system, Segoe UI, Helvetica, Arial, sans-serif">
<line x1="30" y1="232" x2="428" y2="232" stroke="#8b949e" stroke-width="1" opacity="0.2"/>
<text x="24" y="235" font-size="9" fill="#8b949e" text-anchor="end" font-weight="normal" opacity="1">0</text>
<line x1="30" y1="179" x2="428" y2="179" stroke="#8b949e" stroke-width="1" opacity="0.2"/>
<text x="24" y="182" font-size="9" fill="#8b949e" text-anchor="end" font-weight="normal" opacity="1">10</text>
<line x1="30" y1="126" x2="428" y2="126" stroke="#8b949e" stroke-width="1" opacity="0.2"/>
<text x="24" y="129" font-size="9" fill="#8b949e" text-anchor="end" font-weight="normal" opacity="1">20</text>
<line x1="30" y1="73" x2="428" y2="73" stroke="#8b949e" stroke-width="1" opacity="0.2"/>
<text x="24" y="76" font-size="9" fill="#8b949e" text-anchor="end" font-weight="normal" opacity="1">30</text>
<line x1="30" y1="20" x2="428" y2="20" stroke="#8b949e" stroke-width="1" opacity="0.2"/>
<text x="24" y="23" font-size="9" fill="#8b949e" text-anchor="end" font-weight="normal" opacity="1">40</text>
<path d="M30 163.1 L146.08 163.1 L146.08 157.8 L179.25 157.8 L179.25 152.5 L183.4 152.5 L183.4 147.2 L212.42 147.2 L212.42 141.9 L212.42 141.9 L212.42 136.6 L345.08 136.6 L345.08 131.3 L345.08 131.3 L345.08 126 L349.23 126 L349.23 120.7 L353.38 120.7 L353.38 115.4 L353.38 115.4 L353.38 110.1 L357.52 110.1 L357.52 104.8 L361.67 104.8 L361.67 99.5 L361.67 99.5 L361.67 94.2 L365.81 94.2 L365.81 88.9 L369.96 88.9 L369.96 83.6 L374.1 83.6 L374.1 78.3 L378.25 78.3 L378.25 73 L382.4 73 L382.4 67.7 L386.54 67.7 L386.54 62.4 L428 62.4 L428 57.1 L428 57.1 L428 232 L30 232 Z" fill="#4c8eda" stroke="none" stroke-width="1" stroke-linejoin="round" stroke-linecap="round" opacity="0.16"/>
<path d="M30 163.1 L146.08 163.1 L146.08 157.8 L179.25 157.8 L179.25 152.5 L183.4 152.5 L183.4 147.2 L212.42 147.2 L212.42 141.9 L212.42 141.9 L212.42 136.6 L345.08 136.6 L345.08 131.3 L345.08 131.3 L345.08 126 L349.23 126 L349.23 120.7 L353.38 120.7 L353.38 115.4 L353.38 115.4 L353.38 110.1 L357.52 110.1 L357.52 104.8 L361.67 104.8 L361.67 99.5 L361.67 99.5 L361.67 94.2 L365.81 94.2 L365.81 88.9 L369.96 88.9 L369.96 83.6 L374.1 83.6 L374.1 78.3 L378.25 78.3 L378.25 73 L382.4 73 L382.4 67.7 L386.54 67.7 L386.54 62.4 L428 62.4 L428 57.1 L428 57.1" fill="none" stroke="#4c8eda" stroke-width="1.8" stroke-linejoin="round" stroke-linecap="round" opacity="1"/>
<circle cx="428" cy="57.1" r="3.2" fill="#4c8eda" opacity="1"/>
<text x="426" y="48.1" font-size="10" fill="#4c8eda" text-anchor="end" font-weight="600" opacity="1">33 solved</text>
<text x="34" y="157.1" font-size="9" fill="#8b949e" text-anchor="start" font-weight="normal" opacity="1">13 before</text>
<line x1="30" y1="232" x2="428" y2="232" stroke="#8b949e" stroke-width="1" opacity="0.55"/>
<text x="30" y="250" font-size="9" fill="#8b949e" text-anchor="start" font-weight="normal" opacity="1">Jun 2026</text>
<text x="154.38" y="250" font-size="9" fill="#8b949e" text-anchor="middle" font-weight="normal" opacity="1">Jul</text>
<text x="282.9" y="250" font-size="9" fill="#8b949e" text-anchor="middle" font-weight="normal" opacity="1">Aug</text>
<text x="411.42" y="250" font-size="9" fill="#8b949e" text-anchor="middle" font-weight="normal" opacity="1">Sep</text>
</svg>
